<?xml version="1.0" encoding="utf-8"?>
<!-- Generator: Adobe Illustrator 23.1.0, SVG Export Plug-In . SVG Version: 6.00 Build 0)  -->
<svg version="1.1" id="Слой_2" xmlns="http://www.w3.org/2000/svg" xmlns:xlink="http://www.w3.org/1999/xlink" x="0px" y="0px"
	 viewBox="0 0 100 100" style="enable-background:new 0 0 100 100;" xml:space="preserve">
<style type="text/css">
	.st0{fill:#666666;stroke:#990000;stroke-width:3;stroke-miterlimit:10;}
</style>
<g>
	<path class="st0" d="M16.3,97.3L2.7,83.7c-1.5-1.5-1.5-3.9,0-5.3L78.3,2.7c1.5-1.5,3.9-1.5,5.3,0l13.7,13.7c1.5,1.5,1.5,3.9,0,5.3
		L21.7,97.3C20.2,98.8,17.8,98.8,16.3,97.3z"/>
	<path class="st0" d="M2.7,16.3L16.3,2.7c1.5-1.5,3.9-1.5,5.3,0l75.7,75.7c1.5,1.5,1.5,3.9,0,5.3L83.7,97.3c-1.5,1.5-3.9,1.5-5.3,0
		L2.7,21.7C1.2,20.2,1.2,17.8,2.7,16.3z"/>
</g>
</svg>
