<?xml version="1.0" encoding="utf-8"?>
<!-- Generator: Adobe Illustrator 23.1.0, SVG Export Plug-In . SVG Version: 6.00 Build 0)  -->
<svg version="1.1" id="Слой_1" xmlns="http://www.w3.org/2000/svg" xmlns:xlink="http://www.w3.org/1999/xlink" x="0px" y="0px"
	 viewBox="0 0 200 200" style="enable-background:new 0 0 200 200;" xml:space="preserve">
<style type="text/css">
	.st0{stroke:#000000;stroke-width:8;stroke-miterlimit:10;}
	.st1{fill:none;stroke:#000000;stroke-width:10;stroke-miterlimit:10;}
</style>
<path class="st0" d="M11.5,115.2l9-10.3c8.5,8.8,20.2,14.6,32.5,14.6c15.4,0,24.6-7.7,24.6-19.1c0-12-8.5-15.9-19.6-20.7L41,72.3
	c-11-4.7-23.8-13-23.8-30.3c0-18,15.7-31.2,37-31.2c13.9,0,26.4,6.1,34.6,14.6L80.9,35c-7.2-6.8-15.8-11-26.7-11
	c-13.2,0-21.9,6.6-21.9,17.2c0,11.3,10.2,15.6,19.5,19.5l16.7,7.2c13.6,5.9,24.2,13.9,24.2,31.5c0,18.6-15.4,33.4-40.1,33.4
	C36.1,132.7,21.7,126,11.5,115.2z"/>
<path class="st0" d="M100.2,126.8c0-38.6,22.8-62.1,53.1-62.1c14.5,0,25.9,7,32.9,14.8l-8.3,9.9c-6.3-6.7-14.2-11.3-24.3-11.3
	c-22.6,0-37.6,18.5-37.6,48.3c0,30,14.3,48.9,37,48.9c11.4,0,20.1-5,27.7-13.4l8.3,9.6c-9.5,11-21.2,17.3-36.7,17.3
	C122.5,188.6,100.2,165.6,100.2,126.8z"/>
<rect class="st1" width="201" height="200"/>
</svg>
