<?xml version="1.0" encoding="utf-8"?>
<!-- Generator: Adobe Illustrator 23.1.0, SVG Export Plug-In . SVG Version: 6.00 Build 0)  -->
<svg version="1.1" id="Слой_1" xmlns="http://www.w3.org/2000/svg" xmlns:xlink="http://www.w3.org/1999/xlink" x="0px" y="0px"
	 viewBox="0 0 100 60.5" style="enable-background:new 0 0 100 60.5;" xml:space="preserve">
<style type="text/css">
	.st0{fill:#FFFFFF;}
</style>
<g>
	<g>
		<path class="st0" d="M1.4,27.2l1.8-2.1c1.7,1.8,4.1,3,6.6,3c3.1,0,5-1.6,5-3.9c0-2.4-1.7-3.2-4-4.2l-3.4-1.5
			c-2.2-1-4.8-2.6-4.8-6.1C2.6,8.6,5.7,6,10.1,6c2.8,0,5.4,1.2,7,3l-1.6,1.9c-1.5-1.4-3.2-2.2-5.4-2.2c-2.7,0-4.4,1.4-4.4,3.5
			c0,2.3,2.1,3.2,3.9,4l3.4,1.5c2.8,1.2,4.9,2.8,4.9,6.4c0,3.8-3.1,6.8-8.1,6.8C6.4,30.7,3.5,29.4,1.4,27.2z"/>
		<path class="st0" d="M21.4,6.4h3.7l4.6,12.8c0.6,1.6,1.1,3.3,1.7,5h0.1c0.6-1.7,1.1-3.3,1.6-5l4.5-12.8h3.7v23.9h-2.8V17.1
			c0-2.1,0.2-4.9,0.4-7.1h-0.2l-1.9,5.4l-4.5,12.4h-2l-4.5-12.4l-1.9-5.4h-0.1c0.1,2.1,0.4,5,0.4,7.1v13.1h-2.8
			C21.4,30.3,21.4,6.4,21.4,6.4z"/>
		<path class="st0" d="M51.7,6.4h3.4l8.1,23.9H60l-4.2-13.3c-0.9-2.7-1.6-5.3-2.4-8.1h-0.2c-0.7,2.8-1.5,5.4-2.4,8.1l-4.2,13.3h-3.1
			L51.7,6.4z M47.8,20.6h11V23h-11V20.6z"/>
		<path class="st0" d="M65.4,6.4h7.5c4.9,0,8.4,1.7,8.4,6.7c0,4.8-3.5,7.1-8.4,7.1h-4.4v10.1h-3V6.4z M72.5,17.7
			c3.7,0,5.8-1.5,5.8-4.6c0-3.1-2.1-4.3-5.8-4.3h-4v8.9C68.5,17.7,72.5,17.7,72.5,17.7z M72.3,19.4l2.4-1.6L82,30.3h-3.4L72.3,19.4z
			"/>
		<path class="st0" d="M90,9h-7.2V6.4h17.5V9H93v21.3h-3L90,9L90,9z"/>
		<path class="st0" d="M4.6,43.2c0-7.8,4.6-12.6,10.8-12.6c3,0,5.3,1.4,6.7,3l-1.7,2c-1.3-1.4-2.9-2.3-4.9-2.3
			c-4.6,0-7.6,3.8-7.6,9.8c0,6.1,2.9,9.9,7.5,9.9c2.3,0,4.1-1,5.6-2.7l1.7,1.9c-1.9,2.2-4.3,3.5-7.4,3.5C9.2,55.7,4.6,51,4.6,43.2z"
			/>
		<path class="st0" d="M26.3,43.3c0-7.7,4.2-12.3,10.2-12.3s10.2,4.7,10.2,12.3c0,7.7-4.2,12.5-10.2,12.5S26.3,50.9,26.3,43.3z
			 M43.6,43.3c0-6-2.8-9.6-7.1-9.6s-7.1,3.7-7.1,9.6s2.8,9.8,7.1,9.8C40.8,53,43.6,49.2,43.6,43.3z"/>
		<path class="st0" d="M52.4,31.4H56l4.6,12.8c0.6,1.6,1.1,3.3,1.7,5h0.2c0.6-1.7,1.1-3.3,1.6-5l4.5-12.8h3.7v23.9h-2.8V42.1
			c0-2.1,0.2-5,0.4-7.1h-0.2l-1.9,5.5l-4.5,12.4h-2l-4.5-12.4l-1.9-5.5h-0.2c0.2,2.1,0.4,5,0.4,7.1v13.1h-2.8
			C52.4,55.3,52.4,31.4,52.4,31.4z"/>
		<path class="st0" d="M79.4,31.4h6.8c5.3,0,9,1.8,9,7c0,5-3.6,7.4-8.8,7.4h-3.9v9.5h-3L79.4,31.4L79.4,31.4z M86,43.3
			c4.2,0,6.2-1.5,6.2-4.9c0-3.5-2.1-4.6-6.3-4.6h-3.4v9.5H86z"/>
	</g>
</g>
</svg>
