<?xml version="1.0" encoding="utf-8"?>
<!-- Generator: Adobe Illustrator 23.1.0, SVG Export Plug-In . SVG Version: 6.00 Build 0)  -->
<svg version="1.1" id="Слой_1" xmlns="http://www.w3.org/2000/svg" xmlns:xlink="http://www.w3.org/1999/xlink" x="0px" y="0px"
	 viewBox="0 0 100 18.7" style="enable-background:new 0 0 100 18.7;" xml:space="preserve">
<style type="text/css">
	.st0{fill:#FFFFFF;}
</style>
<g>
	<g>
		<path class="st0" d="M6.4,12l0.8-0.9c0.8,0.8,1.8,1.3,2.9,1.3c1.4,0,2.2-0.7,2.2-1.7c0-1.1-0.8-1.4-1.7-1.8L9,8.2
			C8,7.8,6.9,7,6.9,5.5c0-1.6,1.4-2.8,3.3-2.8c1.2,0,2.3,0.5,3.1,1.3l-0.7,0.8c-0.6-0.6-1.4-1-2.4-1C9,3.9,8.2,4.5,8.2,5.4
			c0,1,0.9,1.4,1.7,1.7l1.5,0.7c1.2,0.5,2.1,1.2,2.1,2.8c0,1.6-1.4,3-3.6,3C8.6,13.5,7.3,12.9,6.4,12z"/>
		<path class="st0" d="M15.1,2.9h1.6l2,5.6c0.3,0.7,0.5,1.4,0.7,2.2h0.1c0.3-0.7,0.5-1.5,0.7-2.2l2-5.6h1.6v10.5h-1.2V7.6
			c0-0.9,0.1-2.2,0.2-3.1h-0.1l-0.8,2.4l-2,5.4H19l-2-5.4l-0.8-2.4h-0.1c0.1,0.9,0.2,2.2,0.2,3.1v5.8h-1.2V2.9z"/>
		<path class="st0" d="M28.4,2.9h1.5l3.5,10.5H32l-1.8-5.8c-0.4-1.2-0.7-2.3-1-3.5h-0.1c-0.3,1.2-0.7,2.3-1,3.5l-1.8,5.8h-1.4
			L28.4,2.9z M26.7,9.1h4.8v1.1h-4.8V9.1z"/>
		<path class="st0" d="M34.4,2.9h3.3c2.1,0,3.7,0.8,3.7,2.9c0,2.1-1.5,3.1-3.7,3.1h-1.9v4.4h-1.3V2.9z M37.5,7.8
			c1.6,0,2.5-0.7,2.5-2C40,4.5,39.1,4,37.5,4h-1.8v3.9L37.5,7.8L37.5,7.8z M37.4,8.6l1-0.7l3.2,5.5h-1.5L37.4,8.6z"/>
		<path class="st0" d="M45.1,4H42V2.9h7.7V4h-3.2v9.3h-1.3L45.1,4L45.1,4z"/>
		<path class="st0" d="M51,1.4H52v15.9H51V1.4z"/>
		<path class="st0" d="M53.8,8c0-3.4,2-5.5,4.7-5.5c1.3,0,2.3,0.6,2.9,1.3l-0.7,0.9c-0.6-0.6-1.3-1-2.2-1c-2,0-3.3,1.7-3.3,4.3
			c0,2.7,1.3,4.3,3.3,4.3c1,0,1.8-0.4,2.5-1.2l0.7,0.9c-0.8,1-1.9,1.5-3.3,1.5C55.7,13.5,53.8,11.5,53.8,8z"/>
		<path class="st0" d="M63.2,8.1c0-3.3,1.8-5.4,4.5-5.4s4.5,2,4.5,5.4c0,3.4-1.8,5.5-4.5,5.5C65.1,13.5,63.2,11.4,63.2,8.1z
			 M70.8,8.1c0-2.6-1.2-4.2-3.1-4.2c-1.9,0-3.1,1.6-3.1,4.2s1.2,4.3,3.1,4.3S70.8,10.7,70.8,8.1z"/>
		<path class="st0" d="M74.7,2.9h1.6l2,5.6c0.3,0.7,0.5,1.4,0.7,2.2H79c0.3-0.7,0.5-1.5,0.7-2.2l2-5.6h1.6v10.5h-1.2V7.6
			c0-0.9,0.1-2.2,0.2-3.1h-0.1l-0.8,2.4l-2,5.4h-0.9l-2-5.4l-0.8-2.4h-0.1c0.1,0.9,0.2,2.2,0.2,3.1v5.8h-1.2V2.9z"/>
		<path class="st0" d="M86.5,2.9h3c2.3,0,3.9,0.8,3.9,3.1c0,2.2-1.6,3.2-3.9,3.2h-1.7v4.1h-1.3C86.5,13.4,86.5,2.9,86.5,2.9z
			 M89.4,8.1c1.8,0,2.7-0.7,2.7-2.2c0-1.5-0.9-2-2.8-2h-1.5v4.2H89.4z"/>
	</g>
</g>
</svg>
